<?xml version="1.0" encoding="UTF-8"?>
<svg width="20px" height="20px" viewBox="0 0 20 20" version="1.1" xmlns="http://www.w3.org/2000/svg" xmlns:xlink="http://www.w3.org/1999/xlink">
    <title>筛选</title>
    <g id="页面-2" stroke="none" stroke-width="1" fill="none" fill-rule="evenodd">
        <g id="画板" transform="translate(-12.000000, -53.000000)" fill-rule="nonzero">
            <g id="筛选" transform="translate(12.000000, 53.000000)">
                <rect id="矩形" fill="#000000" opacity="0" x="0" y="0" width="20" height="20"></rect>
                <path d="M16.659456,2 L3.340544,2 C2.60286172,2 2.00276114,2.60013714 2.00276114,3.33781942 C2.00276114,3.6896 2.13855086,4.01903542 2.38634058,4.27114058 C2.393728,4.28485486 2.40316342,4.29756342 2.41437258,4.30880914 L7.09546058,8.99026286 L7.09546058,11.4169234 L7.095424,11.4169234 L7.095424,11.8365623 L7.09553372,11.8365623 C7.09553372,11.83808 7.095424,11.8395794 7.095424,11.8410971 C7.095424,12.1471086 7.343488,12.3951726 7.64949942,12.3951726 C7.95551086,12.3951726 8.20357486,12.1471086 8.20357486,11.8410971 C8.20357486,11.8395794 8.20346514,11.83808 8.20346514,11.8365623 L8.20357486,11.8365623 L8.20357486,11.8189349 C8.203648,11.8170331 8.20386742,11.8151314 8.20386742,11.8132114 L8.20386742,8.59843658 C8.20386742,8.55537372 8.186752,8.51406628 8.156288,8.48360228 L3.22161372,3.54923886 C3.21311086,3.535744 3.20246858,3.52338286 3.18994286,3.51264914 C3.15816228,3.48544 3.10480458,3.42656 3.10480458,3.33781942 C3.10480458,3.20782628 3.21055086,3.10208 3.34056228,3.10208 L16.6594926,3.10208 C16.789248,3.10208 16.8948114,3.20782628 16.8948114,3.33781942 C16.8948114,3.42687086 16.8417463,3.48558628 16.8100571,3.51266742 C16.7972023,3.52365714 16.7864137,3.53634742 16.7778011,3.55017142 L11.8440777,8.48325486 C11.8135771,8.51373714 11.7964617,8.55508114 11.7964983,8.59816228 C11.7964983,8.64221258 11.798528,13.043328 11.798528,16.661888 C11.798528,16.7916617 11.692032,16.8972434 11.5611063,16.8972434 C11.4711771,16.8972434 11.4115291,16.8437577 11.3839909,16.8118674 C11.3728183,16.7989211 11.3598903,16.7880594 11.3458103,16.7794469 L10.0745691,15.5264 C10.0110263,15.4637714 9.90884572,15.4641189 9.84577828,15.527168 L9.29027658,16.0822674 C9.25966628,16.1128594 9.24253258,16.1544046 9.24266058,16.1976869 C9.24280686,16.2409691 9.26023314,16.2823863 9.29104458,16.3127771 L10.5859657,17.5894674 C10.5972846,17.6006766 10.6101394,17.6100389 10.624,17.6173531 C10.8774217,17.8645211 11.2081371,17.9999817 11.5610697,17.9999817 C12.3020069,17.9999817 12.9048137,17.3998446 12.9048137,16.6621806 L12.9048137,8.99026286 L17.5858834,4.30879086 C17.597312,4.29736228 17.6068389,4.284416 17.6143177,4.27042742 C17.8616686,4.018432 17.9972389,3.68925258 17.9972389,3.33781942 C17.9972389,2.60015542 17.3971383,2 16.659456,2 L16.659456,2 Z M7.64949942,13.2030903 C7.29921828,13.2030903 7.01425372,13.4880549 7.01425372,13.8383543 C7.01425372,14.1886537 7.29921828,14.4736366 7.64949942,14.4736366 C7.99978058,14.4736366 8.28474514,14.1886537 8.28474514,13.8383543 C8.28474514,13.4880549 7.99978058,13.2030903 7.64949942,13.2030903 L7.64949942,13.2030903 Z" id="形状" fill="#FFFFFF"></path>
            </g>
        </g>
    </g>
</svg>