<?xml version="1.0" encoding="UTF-8"?>
<svg width="28px" height="28px" viewBox="0 0 28 28" version="1.1" xmlns="http://www.w3.org/2000/svg" xmlns:xlink="http://www.w3.org/1999/xlink">
    <title>ico_female</title>
    <g id="页面-2" stroke="none" stroke-width="1" fill="none" fill-rule="evenodd">
        <g id="画板" transform="translate(-12.000000, -96.000000)">
            <g id="ico_female" transform="translate(12.000000, 96.000000)">
                <rect id="矩形" x="0" y="0" width="28" height="28"></rect>
                <path d="M13.8264575,6.12403906 C14.9738942,6.12403906 15.9053098,5.19823438 15.9053098,4.06201953 C15.9053098,2.92299922 14.9738942,2 13.8264575,2 C12.6790208,2 11.7476051,2.92299922 11.7476051,4.06201953 C11.7476051,5.20384531 12.6790208,6.12403906 13.8264575,6.12403906 Z M19.6141395,14.2656121 L17.9757458,8.72331741 C17.3220715,6.50749106 15.4143528,6.57844117 15.4143528,6.57844117 L12.2441731,6.57844117 L12.2441731,6.57571232 L12.2413676,6.57571232 C12.2413676,6.57571232 10.3336489,6.50476221 9.67997467,8.72058856 L8.04158092,14.2601544 C7.88728014,14.778636 8.17904889,15.1743192 8.64195123,15.3025752 C9.10765904,15.43356 9.58178326,15.2043366 9.70522389,14.7895514 L11.2959247,9.38642801 L11.7307723,9.38642801 L8.97299654,18.7409264 L11.5708606,18.7409264 L11.5736661,18.7436553 L11.5736661,25.6094424 C11.5736661,26.1306527 12.0337629,26.5699976 12.5948567,26.5699976 C13.0914247,26.5727265 13.6132419,26.0842623 13.6132419,25.560323 L13.6132419,18.7409264 L14.0312567,18.7409264 L14.0312567,25.5657807 C14.0312567,26.0869911 14.5530739,26.5754553 15.0496419,26.5754553 C15.6107356,26.5727265 16.0708325,26.1361104 16.0708325,25.6149001 L16.0708325,18.749113 L16.0736379,18.7463841 L18.671502,18.7463841 L15.9193372,9.39188571 L16.3541848,9.39188571 L17.9448856,14.7950091 C18.0655208,15.2097943 18.5424504,15.4390177 19.0081583,15.3080329 C19.4738661,15.1797769 19.7684403,14.7840937 19.6141395,14.2656121 Z" id="形状" fill="#EB6565" fill-rule="nonzero"></path>
            </g>
        </g>
    </g>
</svg>