<?xml version="1.0" encoding="UTF-8"?>
<svg width="20px" height="20px" viewBox="0 0 20 20" version="1.1" xmlns="http://www.w3.org/2000/svg" xmlns:xlink="http://www.w3.org/1999/xlink">
    <title>ico_playing</title>
    <g id="页面-2" stroke="none" stroke-width="1" fill="none" fill-rule="evenodd">
        <g id="画板" transform="translate(-42.000000, -52.000000)">
            <g id="ico_playing" transform="translate(42.000000, 52.000000)">
                <rect id="矩形" x="0" y="0" width="20" height="20"></rect>
                <g id="播放中" transform="translate(3.000000, 3.000000)" fill-rule="nonzero">
                    <rect id="矩形" fill="#000000" opacity="0" x="0" y="0" width="14" height="14"></rect>
                    <path d="M10.828125,12.25 C10.405282,12.25 10.0625,11.907218 10.0625,11.484375 L10.0625,5.359375 C10.0625,4.93653199 10.405282,4.59375 10.828125,4.59375 C11.250968,4.59375 11.59375,4.93653199 11.59375,5.359375 L11.59375,11.484375 C11.59375,11.907218 11.250968,12.25 10.828125,12.25 Z M7.765625,12.25 C7.34278199,12.25 7,11.907218 7,11.484375 L7,0.765625 C7,0.342781988 7.34278199,0 7.765625,0 C8.18846801,0 8.53125,0.342781988 8.53125,0.765625 L8.53125,11.484375 C8.53125,11.907218 8.18846801,12.25 7.765625,12.25 Z M4.703125,12.25 C4.28028199,12.25 3.9375,11.907218 3.9375,11.484375 L3.9375,8.421875 C3.9375,7.99903199 4.28028199,7.65625 4.703125,7.65625 C5.12596801,7.65625 5.46875,7.99903199 5.46875,8.421875 L5.46875,11.484375 C5.46875,11.907218 5.12596801,12.25 4.703125,12.25 Z M1.640625,12.25 C1.21778199,12.25 0.875,11.907218 0.875,11.484375 L0.875,3.828125 C0.875,3.40528199 1.21778199,3.0625 1.640625,3.0625 C2.06346801,3.0625 2.40625,3.40528199 2.40625,3.828125 L2.40625,11.484375 C2.40625,11.907218 2.06346801,12.25 1.640625,12.25 Z" id="形状" fill="#09D0EC"></path>
                </g>
            </g>
        </g>
    </g>
</svg>