<?xml version="1.0" encoding="UTF-8"?>
<svg width="28px" height="28px" viewBox="0 0 28 28" version="1.1" xmlns="http://www.w3.org/2000/svg" xmlns:xlink="http://www.w3.org/1999/xlink">
    <path d="M14.04,6.16 C15.1901513,6.16 16.12,5.22729023 16.12,4.08 C16.12,2.92984869 15.1872902,2 14.04,2 C12.8898487,2 11.96,2.93270977 11.96,4.08 C11.96,5.22729023 12.8898487,6.16 14.04,6.16 Z M11.7082759,6.536 C10.2194483,6.536 9,7.688252 9,9.11129704 L9,15.3423001 C9,15.8286223 9.39972414,16.223759 9.90951724,16.223759 C10.4193103,16.223759 10.8335172,15.8286223 10.8335172,15.3423001 L10.8335172,9.72748936 L11.3085517,9.72748936 L11.3085517,25.3561161 C11.3085517,26.0082299 11.8646897,26.536 12.5482759,26.536 C13.2318621,26.536 13.7851034,26.0082299 13.7851034,25.3561161 L13.7851034,16.2817861 L14.292,16.2817861 L14.292,25.3561161 C14.292,26.0082299 14.8452414,26.536 15.5288276,26.536 C16.2124138,26.536 16.7714483,26.0082299 16.7714483,25.3561161 L16.7714483,9.72748936 L17.2464828,9.72748936 L17.2464828,15.3423001 C17.2464828,15.8286223 17.6606897,16.223759 18.1704828,16.223759 C18.6802759,16.223759 19.08,15.8286223 19.08,15.3423001 L19.08,9.11129704 C19.08,7.688252 17.8634483,6.536 16.3717241,6.536 L11.7082759,6.536 Z" id="形状" fill="#87E77D" fill-rule="nonzero"></path>
</svg>