<?xml version="1.0" encoding="UTF-8"?>
<svg width="12px" height="12px" viewBox="0 0 12 12" version="1.1" xmlns="http://www.w3.org/2000/svg" xmlns:xlink="http://www.w3.org/1999/xlink">
    <title>Icon</title>
    <defs>
        <radialGradient cx="49.1724924%" cy="42.7781168%" fx="49.1724924%" fy="42.7781168%" r="196.392355%" gradientTransform="translate(0.491725,0.427781),scale(0.527977,1.000000),rotate(90.677440),translate(-0.491725,-0.427781)" id="radialGradient-1">
            <stop stop-color="#0B1B9A" offset="0%"></stop>
            <stop stop-color="#000000" offset="100%"></stop>
        </radialGradient>
        <radialGradient cx="49.1724924%" cy="42.7781168%" fx="49.1724924%" fy="42.7781168%" r="134.679836%" gradientTransform="translate(0.491725,0.427781),scale(0.527977,1.000000),rotate(90.586049),translate(-0.491725,-0.427781)" id="radialGradient-2">
            <stop stop-color="#0123B0" offset="0%"></stop>
            <stop stop-color="#020E47" offset="99.7966144%"></stop>
            <stop stop-color="#020E47" offset="99.9816508%"></stop>
            <stop stop-color="#020D47" offset="100%"></stop>
            <stop stop-color="#000B43" offset="100%"></stop>
        </radialGradient>
        <radialGradient cx="50%" cy="54.2485834%" fx="50%" fy="54.2485834%" r="76.6687414%" gradientTransform="translate(0.500000,0.542486),scale(0.384615,1.000000),rotate(90.000000),translate(-0.500000,-0.542486)" id="radialGradient-3">
            <stop stop-color="#000000" stop-opacity="0" offset="0%"></stop>
            <stop stop-color="#3F69E7" offset="100%"></stop>
        </radialGradient>
        <radialGradient cx="53.1411638%" cy="50%" fx="53.1411638%" fy="50%" r="100%" gradientTransform="translate(0.531412,0.500000),scale(0.447205,1.000000),rotate(90.000000),scale(1.000000,3.980738),translate(-0.531412,-0.500000)" id="radialGradient-4">
            <stop stop-color="#000000" stop-opacity="0" offset="0%"></stop>
            <stop stop-color="#FFFFFF" stop-opacity="0.50114729" offset="100%"></stop>
        </radialGradient>
    </defs>
    <g id="页面-1" stroke="none" stroke-width="1" fill="none" fill-rule="evenodd">
        <g id="数据看板-框架" transform="translate(-250.000000, -375.000000)">
            <g id="中华人民共和国" transform="translate(254.000000, -50.000000)" fill="#000000" fill-opacity="0.2" stroke="#333333" stroke-linecap="round" stroke-linejoin="round">
                <polygon id="路径" points="701.071207 284.619195 687.102167 290.73065 682.736842 295.095975 683.609907 295.96904 679.244582 297.71517 679.244582 299.4613 677.498452 297.71517 675.752322 299.4613 677.498452 299.4613 676.625387 301.20743 672.260062 301.20743 669.640867 303.826625 668.767802 300.334365 675.752322 296.842105 674.879257 295.96904 676.625387 295.96904 675.752322 296.842105 675.752322 293.349845 677.498452 291.603715 674.879257 293.349845 671.386997 291.603715 670.513932 288.98452 674.006192 287.23839 674.006192 283.74613 680.990712 277.634675 680.117647 275.888545 681.863777 275.888545 681.863777 274.142415 684.482972 273.26935 683.609907 268.03096 680.117647 267.157895 678.371517 263.665635 674.879257 265.411765 674.006192 263.665635 670.513932 263.665635 667.021672 265.411765 667.894737 266.28483 664.402477 268.904025 660.037152 276.76161 646.941176 282 646.941176 283.74613 644.321981 285.49226 642.575851 288.98452 643.448916 290.73065 638.210526 295.96904 633.845201 295.96904 632.972136 300.334365 628.606811 297.71517 625.987616 294.22291 622.495356 297.71517 623.368421 301.20743 619.876161 301.20743 621.622291 303.826625 619.876161 304.69969 619.876161 306.44582 621.622291 309.065015 624.241486 309.065015 623.368421 310.811146 625.114551 312.557276 632.972136 315.176471 636.464396 313.430341 640.829721 317.795666 640.829721 319.541796 642.575851 319.541796 643.448916 321.287926 640.829721 321.287926 638.210526 324.780186 639.083591 328.272446 644.321981 331.764706 649.560372 331.764706 652.179567 326.526316 656.544892 324.780186 656.544892 323.034056 660.037152 320.414861 663.529412 319.541796 669.640867 322.160991 669.640867 323.907121 672.260062 323.034056 674.879257 326.526316 682.736842 323.907121 683.609907 326.526316 684.482972 325.653251 691.467492 327.399381 689.721362 327.399381 689.721362 330.891641 687.975232 332.637771 689.721362 333.510836 688.848297 336.130031 687.975232 335.256966 684.482972 337.003096 682.736842 335.256966 681.863777 336.130031 681.863777 334.383901 675.752322 337.876161 676.625387 338.749226 674.006192 337.876161 674.879257 337.003096 668.767802 341.368421 666.148607 340.495356 665.275542 341.368421 667.021672 341.368421 667.021672 343.114551 665.275542 344.860681 665.275542 343.114551 663.529412 343.114551 661.783282 350.099071 659.164087 350.972136 657.417957 350.099071 657.417957 347.479876 654.798762 348.352941 654.798762 350.099071 656.544892 350.099071 655.671827 351.845201 657.417957 351.845201 653.925697 353.591331 653.925697 355.337461 652.179567 355.337461 650.433437 358.829721 648.687307 358.829721 646.941176 361.448916 647.814241 362.321981 641.702786 369.306502 641.702786 371.052632 646.941176 373.671827 646.068111 374.544892 647.814241 376.291022 657.417957 380.656347 663.529412 397.244582 665.275542 398.117647 664.402477 398.990712 667.021672 404.229102 666.148607 407.721362 673.133127 412.086687 674.006192 416.452012 677.498452 418.198142 680.117647 421.690402 680.117647 428.674923 673.133127 426.055728 672.260062 426.928793 680.990712 434.786378 680.990712 440.024768 683.609907 442.643963 680.990712 441.770898 680.117647 439.151703 674.879257 439.151703 667.894737 442.643963 669.640867 445.263158 672.260062 445.263158 675.752322 451.374613 683.609907 453.993808 679.244582 457.486068 680.990712 458.359133 680.990712 467.089783 675.752322 465.343653 678.371517 469.708978 674.879257 474.074303 676.625387 475.820433 676.625387 479.312693 674.879257 479.312693 670.513932 483.678019 668.767802 481.931889 667.894737 482.804954 667.021672 485.424149 669.640867 485.424149 669.640867 487.170279 668.767802 488.043344 669.640867 487.170279 667.021672 486.297214 663.529412 488.916409 661.783282 491.535604 662.656347 494.154799 660.910217 497.647059 657.417957 498.520124 656.544892 502.012384 655.671827 501.139319 653.925697 502.885449 655.671827 504.631579 651.306502 508.123839 650.433437 507.250774 653.925697 503.758514 652.179567 503.758514 652.179567 505.504644 647.814241 504.631579 646.941176 506.377709 650.433437 506.377709 652.179567 509.869969 648.687307 511.616099 647.814241 513.362229 649.560372 515.981424 647.814241 520.346749 646.068111 521.219814 648.687307 523.839009 648.687307 522.092879 650.433437 521.219814 650.433437 525.585139 648.687307 524.712074 648.687307 526.458204 644.321981 522.965944 644.321981 524.712074 641.702786 524.712074 640.829721 525.585139 644.321981 527.331269 642.575851 529.077399 640.829721 528.204334 640.829721 530.823529 639.956656 528.204334 638.210526 528.204334 639.083591 529.077399 637.337461 529.950464 639.083591 533.442724 633.845201 533.442724 636.464396 535.188854 633.845201 538.681115 631.226006 536.934985 625.987616 538.681115 627.733746 543.04644 625.114551 543.919505 619.876161 550.03096 619.876161 551.77709 619.003096 550.904025 616.383901 553.52322 609.399381 554.396285 609.399381 556.142415 607.653251 557.01548 608.526316 558.76161 606.780186 558.76161 604.160991 563.126935 599.795666 563.126935 595.430341 565.74613 591.93808 564 590.19195 565.74613 591.93808 565.74613 591.065015 566.619195 587.572755 566.619195 585.826625 565.74613 586.69969 564.873065 584.95356 564.873065 581.4613 569.23839 578.842105 567.49226 579.71517 565.74613 576.22291 567.49226 577.96904 569.23839 576.22291 570.98452 575.349845 568.365325 569.23839 570.111455 568.365325 569.23839 567.49226 570.98452 564.873065 565.74613 564.873065 569.23839 563.126935 570.98452 564 571.857585 562.25387 575.349845 563.126935 576.22291 558.76161 579.71517 556.142415 576.22291 554.396285 579.71517 552.650155 578.842105 548.28483 581.4613 541.30031 580.588235 541.30031 583.20743 539.55418 584.080495 536.934985 583.20743 531.696594 585.826625 529.950464 585.826625 530.823529 584.95356 523.839009 586.69969 515.108359 592.811146 518.600619 595.430341 520.346749 600.668731 518.600619 603.287926 515.108359 604.160991 511.616099 604.160991 511.616099 600.668731 508.996904 598.049536 508.123839 594.557276 508.996904 587.572755 511.616099 585.826625 507.250774 584.080495 505.504644 585.826625 501.139319 586.69969 499.393189 584.95356 500.266254 584.080495 495.027864 582.334365 488.043344 584.95356 488.043344 583.20743 486.297214 584.95356 481.931889 582.334365 475.820433 583.20743 474.947368 581.4613 470.582043 579.71517 470.582043 577.96904 466.216718 577.96904 466.216718 572.73065 464.470588 571.857585 464.470588 570.111455 467.962848 565.74613 465.343653 563.126935 454.866873 563.126935 451.374613 560.50774 450.501548 561.380805 450.501548 559.634675 447.009288 556.142415 444.390093 558.76161 443.517028 557.888545 438.278638 564.873065 433.913313 566.619195 431.294118 564.873065 429.547988 565.74613 427.801858 570.111455 423.436533 565.74613 421.690402 568.365325 419.944272 564.873065 416.452012 568.365325 417.325077 569.23839 415.578947 569.23839 415.578947 570.98452 412.086687 567.49226 407.721362 565.74613 402.482972 570.98452 400.736842 570.111455 398.990712 571.857585 397.244582 569.23839 394.625387 573.603715 394.625387 577.96904 396.371517 577.96904 397.244582 583.20743 397.244582 590.19195 394.625387 590.19195 393.752322 588.44582 390.260062 589.318885 388.513932 587.572755 389.386997 584.080495 387.640867 580.588235 380.656347 585.826625 378.910217 585.826625 378.037152 584.080495 375.417957 585.826625 373.671827 584.080495 374.544892 582.334365 372.798762 582.334365 371.052632 579.71517 371.925697 577.095975 366.687307 575.349845 360.575851 575.349845 362.321981 571.857585 361.448916 570.98452 363.195046 570.111455 362.321981 565.74613 364.068111 564.873065 364.068111 563.126935 365.814241 564 365.814241 562.25387 364.941176 560.50774 361.448916 561.380805 357.083591 558.76161 357.083591 555.26935 355.337461 555.26935 355.337461 550.03096 353.591331 550.03096 353.591331 548.28483 357.083591 545.665635 347.479876 544.79257 339.622291 549.157895 337.876161 547.411765 340.495356 544.79257 340.495356 541.30031 337.876161 540.427245 337.876161 536.06192 341.368421 533.442724 340.495356 530.823529 342.241486 527.331269 343.114551 528.204334 347.479876 522.092879 350.099071 522.092879 351.845201 518.600619 354.464396 517.727554 351.845201 514.235294 354.464396 513.362229 353.591331 510.743034 355.337461 506.377709 353.591331 490.662539 350.099071 489.789474 350.099071 491.535604 348.352941 491.535604 347.479876 487.170279 345.733746 485.424149 346.606811 482.804954 343.114551 478.439628 340.495356 478.439628 339.622291 475.820433 337.003096 476.693498 337.003096 480.185759 336.130031 479.312693 334.383901 482.804954 335.256966 485.424149 331.764706 488.043344 323.907121 482.804954 316.049536 481.058824 314.303406 479.312693 309.065015 481.058824 306.44582 483.678019 306.44582 485.424149 295.095975 490.662539 291.603715 490.662539 287.23839 495.027864 285.49226 499.393189 282.873065 501.139319 261.04644 502.012384 261.919505 501.139319 260.173375 498.520124 261.919505 495.900929 259.30031 492.408669 254.06192 491.535604 254.934985 486.297214 250.569659 483.678019 247.950464 484.551084 247.950464 486.297214 246.204334 486.297214 241.839009 482.804954 238.346749 483.678019 233.981424 481.058824 233.108359 481.931889 228.743034 480.185759 220.885449 487.170279 219.139319 490.662539 220.012384 495.027864 217.393189 496.773994 214.773994 493.281734 216.520124 486.297214 213.027864 482.804954 203.424149 486.297214 200.804954 485.424149 199.931889 487.170279 191.201238 487.170279 185.962848 482.804954 184.216718 482.804954 181.597523 485.424149 176.359133 482.804954 177.232198 485.424149 175.486068 485.424149 171.993808 478.439628 170.247678 480.185759 165.009288 480.185759 163.263158 478.439628 163.263158 473.201238 161.517028 474.947368 158.024768 474.947368 155.405573 472.328173 153.659443 472.328173 147.547988 462.724458 141.436533 465.343653 136.198142 458.359133 132.705882 456.613003 131.832817 457.486068 127.467492 453.120743 122.229102 451.374613 120.482972 446.136223 119.609907 447.009288 111.752322 445.263158 109.133127 452.247678 107.386997 452.247678 106.513932 449.628483 100.402477 444.390093 98.6563467 445.263158 96.0371517 442.643963 91.6718266 442.643963 88.1795666 436.532508 85.5603715 437.405573 82.9411765 435.659443 77.7027864 435.659443 75.0835913 430.421053 74.2105263 431.294118 73.3374613 426.928793 75.0835913 426.055728 72.4643963 422.563467 74.2105263 420.817337 68.9721362 416.452012 70.7182663 414.705882 68.9721362 411.213622 73.3374613 407.721362 75.0835913 412.959752 76.8297214 413.832817 79.4489164 411.213622 81.1950464 411.213622 81.1950464 403.356037 79.4489164 402.482972 75.9566563 395.498452 73.3374613 393.752322 74.2105263 392.006192 72.4643963 392.006192 74.2105263 390.260062 72.4643963 385.021672 74.2105263 383.275542 75.0835913 384.148607 77.7027864 379.783282 74.2105263 378.910217 72.4643963 376.291022 68.9721362 376.291022 66.3529412 373.671827 66.3529412 369.306502 63.7337461 365.814241 65.4798762 360.575851 60.2414861 359.702786 58.495356 361.448916 51.5108359 359.702786 47.1455108 357.083591 46.2724458 357.956656 42.7801858 354.464396 42.7801858 352.718266 41.0340557 354.464396 37.5417957 354.464396 37.5417957 352.718266 34.0495356 350.099071 35.7956656 344.860681 33.1764706 339.622291 29.6842105 337.876161 27.0650155 338.749226 26.1919505 334.383901 23.5727554 333.510836 19.2074303 335.256966 19.2074303 333.510836 15.7151703 333.510836 13.9690402 331.764706 13.9690402 330.018576 20.0804954 330.018576 23.5727554 326.526316 19.2074303 322.160991 20.9535604 320.414861 20.0804954 316.049536 18.3343653 314.303406 19.2074303 307.318885 8.73065015 303.826625 6.98452012 307.318885 3.49226006 303.826625 2.61919505 301.20743 3.49226006 299.4613 5.23839009 299.4613 0 291.603715 1.74613003 289.857585 5.23839009 289.857585 6.98452012 278.50774 11.3498452 278.50774 14.8421053 275.01548 20.0804954 274.142415 18.3343653 270.650155 24.4458204 272.396285 28.8111455 268.03096 31.4303406 271.52322 31.4303406 275.01548 34.0495356 275.01548 34.9226006 273.26935 38.4148607 272.396285 40.1609907 274.142415 44.5263158 268.904025 44.5263158 265.411765 47.1455108 261.04644 60.2414861 261.04644 60.2414861 259.30031 64.6068111 257.55418 66.3529412 254.06192 68.0990712 254.934985 71.5913313 252.315789 72.4643963 253.188854 82.0681115 246.204334 87.3065015 245.331269 89.9256966 241.839009 94.2910217 241.839009 93.4179567 239.219814 95.1640867 238.346749 95.1640867 233.108359 93.4179567 231.362229 95.1640867 227.869969 99.5294118 225.250774 97.7832817 225.250774 96.9102167 222.631579 102.148607 220.885449 102.148607 215.647059 96.9102167 201.678019 96.0371517 190.328173 89.9256966 186.835913 91.6718266 184.216718 96.0371517 184.216718 103.021672 181.597523 103.894737 182.470588 116.117647 177.232198 120.482972 180.724458 122.229102 179.851393 126.594427 181.597523 127.467492 176.359133 123.102167 173.739938 123.102167 170.247678 123.975232 165.882353 128.340557 158.897833 133.578947 140.563467 137.944272 140.563467 145.801858 144.928793 158.024768 144.055728 160.643963 147.547988 165.009288 143.182663 169.374613 143.182663 171.120743 139.690402 169.374613 119.609907 172.866873 114.371517 178.978328 114.371517 184.216718 111.752322 184.216718 110.006192 186.835913 108.260062 185.962848 103.021672 187.708978 99.5294118 195.566563 100.402477 200.804954 98.6563467 202.551084 103.021672 199.931889 103.894737 202.551084 107.386997 205.170279 108.260062 203.424149 110.879257 206.043344 113.498452 211.281734 115.244582 213.900929 120.482972 217.393189 121.356037 219.139319 123.975232 223.504644 122.229102 226.123839 123.102167 228.743034 127.467492 233.108359 125.721362 233.981424 129.213622 237.473684 130.959752 239.219814 140.563467 242.712074 144.928793 244.458204 144.928793 247.077399 153.659443 244.458204 158.897833 246.204334 164.136223 240.965944 172.866873 240.965944 175.486068 243.585139 178.105263 242.712074 178.978328 244.458204 178.978328 243.585139 180.724458 267.157895 185.089783 281.126935 185.089783 293.349845 194.693498 297.71517 196.439628 297.71517 198.185759 302.080495 199.931889 308.19195 199.058824 306.44582 204.297214 308.19195 204.297214 310.811146 207.789474 314.303406 218.266254 321.287926 226.123839 321.287926 228.743034 334.383901 227.869969 346.606811 230.489164 365.814241 232.235294 377.164087 229.616099 384.148607 230.489164 397.244582 233.108359 401.609907 238.346749 409.467492 240.092879 419.944272 245.331269 426.928793 247.077399 435.659443 245.331269 435.659443 249.696594 442.643963 250.569659 453.120743 243.585139 477.566563 233.981424 483.678019 235.727554 488.043344 233.981424 496.773994 235.727554 499.393189 233.981424 502.885449 234.854489 511.616099 230.489164 514.235294 230.489164 517.727554 228.743034 527.331269 217.393189 534.315789 214.773994 540.427245 210.408669 540.427245 207.789474 532.569659 198.185759 537.80805 185.089783 541.30031 183.343653 546.5387 183.343653 552.650155 187.708978 564 190.328173 565.74613 187.708978 570.111455 185.962848 577.095975 177.232198 588.44582 177.232198 595.430341 173.739938 597.176471 171.120743 600.668731 169.374613 600.668731 165.882353 605.034056 158.897833 609.399381 157.151703 616.383901 157.151703 617.256966 152.786378 619.876161 152.786378 620.749226 154.532508 628.606811 150.167183 636.464396 151.040248 637.337461 149.294118 643.448916 152.786378 648.687307 152.786378 652.179567 151.040248 652.179567 147.547988 649.560372 141.436533 643.448916 135.325077 644.321981 134.452012 641.702786 133.578947 640.829721 130.959752 635.591331 128.340557 632.972136 123.975232 622.495356 123.102167 616.383901 130.959752 609.399381 125.721362 603.287926 127.467492 600.668731 126.594427 596.303406 130.086687 591.065015 124.848297 590.19195 121.356037 594.557276 117.863777 594.557276 112.625387 606.780186 83.8142415 614.637771 89.0526316 622.495356 90.7987616 630.352941 84.6873065 632.099071 84.6873065 633.845201 82.0681115 640.829721 81.1950464 641.702786 78.5758514 642.575851 79.4489164 644.321981 76.8297214 644.321981 73.3374613 641.702786 72.4643963 646.068111 63.7337461 646.068111 61.1145511 649.560372 57.622291 649.560372 54.130031 653.052632 49.7647059 653.925697 44.5263158 663.529412 36.6687307 662.656347 35.7956656 664.402477 32.3034056 661.783282 28.8111455 663.529412 24.4458204 660.037152 21.8266254 653.925697 22.6996904 653.925697 18.3343653 662.656347 10.4767802 664.402477 6.98452012 665.275542 7.85758514 665.275542 6.11145511 668.767802 6.98452012 675.752322 5.23839009 679.244582 2.61919505 682.736842 3.49226006 686.229102 0.873065015 687.102167 2.61919505 693.213622 2.61919505 695.832817 0.873065015 697.578947 1.74613003 698.452012 0 707.182663 1.74613003 722.024768 10.4767802 725.517028 7.85758514 732.501548 11.3498452 733.374613 16.5882353 734.247678 15.7151703 736.866873 18.3343653 739.486068 18.3343653 737.739938 19.2074303 738.613003 20.0804954 736.866873 21.8266254 738.613003 21.8266254 742.105263 26.1919505 743.851393 29.6842105 742.105263 29.6842105 742.105263 31.4303406 745.597523 33.1764706 743.851393 37.5417957 748.216718 42.7801858 748.216718 48.8916409 750.835913 50.6377709 749.089783 50.6377709 749.089783 52.3839009 749.962848 53.2569659 749.962848 51.5108359 751.708978 51.5108359 749.962848 55.876161 756.074303 64.6068111 756.074303 73.3374613 760.439628 75.9566563 758.693498 79.4489164 759.566563 85.5603715 761.312693 85.5603715 763.058824 89.9256966 776.154799 89.9256966 776.154799 91.6718266 777.900929 91.6718266 781.393189 95.1640867 784.885449 95.1640867 785.758514 92.5448916 787.504644 96.0371517 789.250774 96.0371517 793.616099 102.148607 797.981424 105.640867 802.346749 104.767802 803.219814 105.640867 801.473684 110.879257 802.346749 113.498452 804.965944 113.498452 804.092879 114.371517 805.839009 116.990712 804.092879 118.736842 803.219814 123.102167 805.839009 124.848297 808.458204 130.086687 814.569659 129.213622 816.315789 130.959752 821.55418 129.213622 825.04644 130.086687 826.79257 128.340557 830.28483 129.213622 831.157895 124.848297 835.52322 123.102167 837.26935 120.482972 843.380805 121.356037 844.25387 119.609907 846 119.609907 846 117.863777 852.98452 115.244582 857.349845 114.371517 860.842105 116.117647 865.20743 113.498452 864.334365 116.117647 859.095975 117.863777 859.095975 121.356037 857.349845 123.102167 859.095975 127.467492 860.842105 128.340557 858.22291 133.578947 852.111455 137.944272 852.98452 142.309598 850.365325 144.928793 850.365325 151.913313 848.619195 152.786378 847.74613 155.405573 849.49226 156.278638 845.126935 162.390093 846 163.263158 844.25387 167.628483 842.50774 167.628483 841.634675 172.866873 838.142415 175.486068 838.142415 181.597523 835.52322 184.216718 821.55418 179.851393 819.80805 178.105263 818.934985 180.724458 818.06192 179.851393 814.569659 185.089783 807.585139 187.708978 807.585139 189.455108 809.331269 190.328173 811.950464 203.424149 810.204334 213.900929 811.950464 214.773994 811.950464 218.266254 810.204334 220.012384 810.204334 224.377709 807.585139 225.250774 807.585139 226.996904 804.965944 226.123839 799.727554 228.743034 802.346749 230.489164 802.346749 233.981424 801.473684 234.854489 801.473684 231.362229 799.727554 232.235294 797.108359 229.616099 797.981424 226.123839 792.743034 223.504644 790.996904 226.123839 790.996904 231.362229 789.250774 234.854489 784.885449 234.854489 782.266254 237.473684 782.266254 239.219814 777.900929 242.712074 766.551084 242.712074 767.424149 247.077399 770.043344 249.696594 767.424149 254.934985 765.678019 253.188854 760.439628 254.06192 754.328173 252.315789 754.328173 250.569659 750.835913 247.077399 747.343653 247.950464 744.724458 254.06192 738.613003 261.04644 738.613003 262.79257 733.374613 264.5387 733.374613 266.28483 731.628483 265.411765 729.009288 268.904025 728.136223 268.03096 719.405573 273.26935 714.167183 278.50774 715.040248 280.25387 711.547988 282.873065 711.547988 284.619195 702.817337 283.74613 701.071207 285.49226"></polygon>
            </g>
            <rect id="矩形" fill="url(#radialGradient-1)" transform="translate(697.000000, 478.000000) scale(-1, 1) translate(-697.000000, -478.000000) " x="0" y="110" width="1394" height="736"></rect>
            <rect id="矩形备份-15" fill="url(#radialGradient-2)" transform="translate(697.000000, 478.000000) scale(-1, 1) translate(-697.000000, -478.000000) " x="0" y="110" width="1394" height="736"></rect>
            <g id="编组-31" transform="translate(24.000000, 286.000000)">
                <rect id="矩形备份-19" stroke="url(#radialGradient-3)" x="0.5" y="0.5" width="337" height="129" rx="4"></rect>
                <g id="编组-36" transform="translate(155.000000, 43.000000)">
                    <rect id="矩形" fill="#FFFFFF" opacity="0.053641183" x="0" y="0" width="161" height="72" rx="4"></rect>
                    <rect id="矩形" stroke="url(#radialGradient-4)" x="0" y="0" width="161" height="72" rx="4"></rect>
                </g>
            </g>
            <g id="编组-6备份-2" transform="translate(220.000000, 368.000000)"></g>
            <g id="编组" transform="translate(250.000000, 375.000000)" fill="#03D70C" fill-rule="nonzero">
                <g id="Icon" transform="translate(6.000000, 6.000000) scale(1, -1) translate(-6.000000, -6.000000) ">
                    <path d="M6.84692918,2.09836908 L9.31870894,9.16059698 C9.40993269,9.42123627 9.27259427,9.70647762 9.01195498,9.79770137 C8.87795223,9.84460233 8.7303291,9.83232493 8.60591501,9.76393217 L6.61586476,8.66996424 C6.46587286,8.58751088 6.28412714,8.58751088 6.13413524,8.66996424 L4.14408499,9.76393217 C3.90209592,9.89695811 3.59808619,9.80862602 3.46506025,9.56663695 C3.3966675,9.44222286 3.3843901,9.29459972 3.43129106,9.16059698 L5.90307082,2.09836908 C5.99429457,1.83772979 6.27953592,1.70039136 6.54017521,1.79161511 C6.68376986,1.84187324 6.79667105,1.95477443 6.84692918,2.09836908 Z" id="Triangle备份"></path>
                </g>
            </g>
        </g>
    </g>
</svg>