<?xml version="1.0" encoding="UTF-8"?>
<svg width="34px" height="40px" viewBox="0 0 34 40" version="1.1" xmlns="http://www.w3.org/2000/svg" xmlns:xlink="http://www.w3.org/1999/xlink">
    <title>摄像头</title>
    <g id="页面-2" stroke="none" stroke-width="1" fill="none" fill-rule="evenodd" opacity="0.114397321">
        <g id="数据看板-框架" transform="translate(-1185.000000, -316.000000)" fill="#FFFFFF" fill-rule="nonzero">
            <g id="编组-23" transform="translate(1033.000000, 241.000000)">
                <g id="摄像头备份-2" transform="translate(152.000000, 75.000000)">
                    <path d="M17,34 C10.9264851,34 5.31432571,30.7598184 2.27756816,25.5 C-0.759189387,20.2401817 -0.759189387,13.7598183 2.27756816,8.5 C5.31432571,3.24018158 10.9264851,0 17,0 C26.3888408,0 34,7.61115925 34,17 C34,26.3888407 26.3888408,34 17,34 Z M17.0000003,25.5 C20.0367576,25.5 22.8428373,23.8799092 24.3612161,21.25 C25.8795949,18.6200909 25.8795949,15.3799091 24.3612161,12.75 C22.8428373,10.1200908 20.0367576,8.5 17.0000003,8.5 C12.3055798,8.5 8.50000032,12.3055797 8.50000032,17 C8.50000032,21.6944203 12.3055798,25.5 17.0000003,25.5 Z M15.5833335,2.83333333 C14.8009301,2.83333333 14.1666668,3.4675966 14.1666668,4.25 C14.1666668,5.0324034 14.8009301,5.66666667 15.5833335,5.66666667 L18.4166668,5.66666667 C19.1990702,5.66666667 19.8333334,5.0324034 19.8333334,4.25 C19.8333334,3.4675966 19.1990702,2.83333333 18.4166668,2.83333333 L15.5833335,2.83333333 Z M9.91666685,36.8333333 L24.0833334,36.8333333 C24.8657368,36.8333333 25.5000002,37.4675966 25.5000002,38.25 C25.5000002,39.0324034 24.8657368,39.6666667 24.0833334,39.6666667 L9.91666685,39.6666667 C9.13426346,39.6666667 8.50000019,39.0324034 8.50000019,38.25 C8.50000019,37.4675966 9.13426346,36.8333333 9.91666685,36.8333333 Z M17.0000001,19.8333333 C15.4351933,19.8333333 14.1666668,18.5648068 14.1666668,17 C14.1666668,15.4351932 15.4351933,14.1666667 17.0000001,14.1666667 C18.5648069,14.1666667 19.8333334,15.4351932 19.8333334,17 C19.8333334,18.5648068 18.5648069,19.8333333 17.0000001,19.8333333 Z" id="形状"></path>
                </g>
            </g>
        </g>
    </g>
</svg>