<?xml version="1.0" encoding="UTF-8"?>
<svg width="28px" height="28px" viewBox="0 0 28 28" version="1.1" xmlns="http://www.w3.org/2000/svg" xmlns:xlink="http://www.w3.org/1999/xlink">
    <title>7.Icon/interface/16.search</title>
    <g id="页面-1" stroke="none" stroke-width="1" fill="none" fill-rule="evenodd">
        <g id="首页-告警消息-无数据备份-2" transform="translate(-940.000000, -445.000000)">
            <g id="编组" transform="translate(940.000000, 445.000000)">
                <g id="7.Icon/interface/16.search" transform="translate(14.000000, 14.000000) scale(-1, 1) translate(-14.000000, -14.000000) ">
                    <rect id="矩形" x="0" y="0" width="28" height="28"></rect>
                    <path d="M14.8965169,4.66666667 C10.3055013,4.66666667 6.58401693,8.38815104 6.58401693,12.9791667 C6.58401693,14.9014323 7.23753255,16.6705729 8.33128255,18.078776 L3.73024089,22.6798177 C3.64547526,22.7645833 3.64547526,22.9040365 3.73024089,22.9888021 L4.88688151,24.1454427 C4.97164714,24.2302083 5.11110026,24.2302083 5.19586589,24.1454427 L9.79690755,19.544401 C11.2051107,20.638151 12.9742513,21.2916667 14.8965169,21.2916667 C19.4875326,21.2916667 23.2090169,17.5701823 23.2090169,12.9791667 C23.2090169,8.38815104 19.4875326,4.66666667 14.8965169,4.66666667 Z M19.3043294,17.3869792 C18.1285482,18.5654948 16.5617513,19.2135417 14.8965169,19.2135417 C13.2312826,19.2135417 11.6644857,18.5654948 10.4887044,17.3869792 C9.3101888,16.2111979 8.66214193,14.644401 8.66214193,12.9791667 C8.66214193,11.3139323 9.3101888,9.74713542 10.4887044,8.57135417 C11.6644857,7.39283854 13.2312826,6.74479167 14.8965169,6.74479167 C16.5617513,6.74479167 18.1285482,7.39283854 19.3043294,8.57135417 C20.4828451,9.74713542 21.1308919,11.3139323 21.1308919,12.9791667 C21.1308919,14.644401 20.4828451,16.2111979 19.3043294,17.3869792 Z" id="fill" fill="#CCCCCC" fill-rule="nonzero"></path>
                </g>
            </g>
        </g>
    </g>
</svg>